<?xml version="1.0" encoding="utf-8"?>
<!-- Generator: Adobe Illustrator 27.4.0, SVG Export Plug-In . SVG Version: 6.00 Build 0)  -->
<svg version="1.1" id="Layer_1" xmlns="http://www.w3.org/2000/svg" xmlns:xlink="http://www.w3.org/1999/xlink" x="0px" y="0px"
	 viewBox="0 0 371.56 182.31" style="enable-background:new 0 0 371.56 182.31;" xml:space="preserve">
<path d="M38.03-116.54"/>
<g>
	<polygon fill="#FFFFFF" points="105.55,36.53 161.23,36.53 180.52,8.84 124.66,8.84 105.03,8.84 90.56,8.84 7.71,128.89 41.8,128.89 	"/>
	<polygon fill="#FFFFFF" points="114.11,53.99 96.14,80.02 130.24,80.02 148.2,53.99 	"/>
	<polygon fill="#FFFFFF" points="35.37,168.07 69.46,168.07 118.19,97.48 84.09,97.48 	"/>
	<polygon fill="#FFFFFF" points="215.8,51.07 201.37,51.07 201.37,34.15 217.81,34.15 217.81,26.49 193.32,26.49 193.32,82.9 201.37,82.9 
		201.37,58.72 215.8,58.72 	"/>
	<rect fill="#FFFFFF" x="221.6" y="27.62" width="8.06" height="7.9"/>
	<rect fill="#FFFFFF" x="221.6" y="42.93" width="8.06" height="39.97"/>
	<path fill="#FFFFFF" d="M262.37,86.6V42.93h-8.06v3.55h-0.08c-0.64-1.05-1.69-2.1-2.74-2.82c-1.45-0.97-3.3-1.37-4.91-1.37
		c-4.03,0-6.04,2.18-6.69,3.06c-1.77,2.42-1.85,5.72-1.85,8.3v20.39c0,1.93,0.24,4.59,2.34,6.77c1.61,1.69,3.63,2.34,5.96,2.34
		c2.34,0,3.87-0.64,5.32-1.53c1.05-0.64,1.93-1.45,2.66-2.34v6.77c0,1.61-0.16,3.22-0.89,4.27c-0.56,0.81-1.61,1.53-3.3,1.53
		c-0.89,0-2.1-0.16-2.98-1.13c-0.64-0.73-1.13-1.77-1.05-2.98h-8.06c0.16,3.06,1.37,6.37,3.06,8.3c1.53,1.77,4.35,3.71,8.94,3.71
		c4.67,0,7.65-1.85,9.27-3.63C262.05,93.21,262.37,89.83,262.37,86.6z M254.32,69.92c0,1.29-0.08,2.74-1.29,4.03
		c-0.56,0.56-1.53,1.29-3.06,1.29c-1.05,0-2.01-0.32-2.82-1.21c-0.97-1.13-1.05-2.42-1.05-3.22V55.02c0-1.29,0.08-2.5,1.05-3.63
		c0.81-0.89,1.77-1.21,2.82-1.21c1.53,0,2.5,0.73,3.06,1.29c1.21,1.29,1.29,2.74,1.29,4.03V69.92z"/>
	<path fill="#FFFFFF" d="M287.35,78.87v4.03h8.06V42.93h-8.06v27.4c0,1.05-0.08,2.58-1.29,3.87c-0.73,0.81-1.93,1.45-3.38,1.45
		c-1.29,0-2.1-0.56-2.58-1.05c-0.89-0.97-0.97-2.26-0.97-3.38V42.93h-8.06v31.51c0,1.93,0.32,4.35,1.61,6.12
		c0.97,1.37,2.9,2.98,6.29,2.98c2.1,0,3.95-0.56,5.56-1.69C286.07,80.72,287.19,79.11,287.35,78.87z"/>
	<path fill="#FFFFFF" d="M315.88,67.75h-0.32l-6.53-24.82h-8.7l11.68,38.11l-1.29,5.24c-0.64,2.58-1.13,3.46-1.45,3.87
		c-1.13,1.53-2.66,1.69-3.79,1.69h-1.53l0.16,7.49h2.1c2.5,0,5.64-0.16,8.06-2.5c2.42-2.34,3.14-6.2,3.71-8.54l10.96-45.37h-8.06
		L315.88,67.75z"/>
	<path fill="#FFFFFF" d="M353.51,45.51c-2.02-1.93-5-3.22-8.62-3.22c-3.71,0-7.01,1.29-9.02,3.3c-1.85,1.85-3.38,5-3.3,8.62h7.65
		c0.08-1.05,0.48-1.93,1.05-2.58c0.89-1.05,2.1-1.45,3.22-1.45c1.21,0,2.42,0.4,3.22,1.29c0.97,1.05,1.05,2.26,1.05,3.38v4.19
		c-2.5-0.24-4.03-0.24-4.59-0.24c-2.34,0-6.85,0.32-9.51,3.47c-2.34,2.74-2.5,7.09-2.5,9.99c0,3.22,0.4,6.85,2.9,9.19
		c2.01,1.85,4.51,2.09,6.12,2.09c1.69,0,3.14-0.32,4.67-1.53c1.13-0.89,2.18-2.18,2.74-3.06h0.16v3.95h8.06V54.94
		C356.82,52.2,356.41,48.41,353.51,45.51z M348.76,71.13c0,3.55-2.1,5.16-4.51,5.16c-1.37,0-2.42-0.56-3.22-1.85
		c-0.64-1.05-0.81-2.18-0.81-3.3c0-1.29,0.16-2.98,1.21-4.19c1.29-1.53,3.22-1.69,4.51-1.69c0.89,0,1.85,0.08,2.82,0.24V71.13z"/>
	<path fill="#FFFFFF" d="M153.7,110.46c-4.19,0-7.49,1.37-9.91,3.63c-3.87,3.63-4.19,7.74-4.19,12.01v26.75c0,4.27,0.32,8.38,4.19,12.01
		c2.42,2.26,5.72,3.63,9.91,3.63s7.49-1.37,9.91-3.63c3.87-3.63,4.19-7.74,4.19-12.01v-26.75c0-4.27-0.32-8.38-4.19-12.01
		C161.19,111.83,157.89,110.46,153.7,110.46z M159.74,154.05c0,1.69-0.16,3.38-1.69,4.92c-0.89,0.89-2.34,1.61-4.35,1.61
		s-3.46-0.73-4.35-1.61c-1.53-1.53-1.69-3.22-1.69-4.92v-29.17c0-1.69,0.16-3.38,1.69-4.92c0.89-0.89,2.34-1.61,4.35-1.61
		s3.46,0.73,4.35,1.61c1.53,1.53,1.69,3.22,1.69,4.92V154.05z"/>
	<path fill="#FFFFFF" d="M192.7,127.05c-1.61,0-5.08,0.4-7.98,4.27v-3.63h-8.06v39.97h8.06v-27.4c0-1.29,0.08-2.74,1.29-4.03
		c0.56-0.56,1.53-1.29,3.06-1.29c1.21,0,2.09,0.4,2.82,1.21c0.97,1.05,1.05,2.26,1.05,3.22v28.28H201v-31.51
		c0-1.93-0.24-4.59-2.34-6.77C197.37,128.02,195.44,127.05,192.7,127.05z"/>
	<path fill="#FFFFFF" d="M217.92,132.05l-0.16-0.08v-4.27h-8.06v39.97h8.06v-22.88c0-8.78,6.85-9.75,10.72-9.11v-8.62
		C225.66,127.05,221.22,127.94,217.92,132.05z"/>
	<rect fill="#FFFFFF" x="233.64" y="127.7" width="8.06" height="39.97"/>
	<rect fill="#FFFFFF" x="233.64" y="112.39" width="8.06" height="7.9"/>
	<path fill="#FFFFFF" d="M266.43,127.05c-1.61,0-5.08,0.4-7.98,4.27v-3.63h-8.06v39.97h8.06v-27.4c0-1.29,0.08-2.74,1.29-4.03
		c0.56-0.56,1.53-1.29,3.06-1.29c1.21,0,2.1,0.4,2.82,1.21c0.97,1.05,1.05,2.26,1.05,3.22v28.28h8.06v-31.51
		c0-1.93-0.24-4.59-2.34-6.77C271.1,128.02,269.17,127.05,266.43,127.05z"/>
	<path fill="#FFFFFF" d="M303.42,129.96c-2.01-1.77-4.92-2.9-8.38-2.9c-3.38,0-6.12,1.13-7.98,2.74c-3.38,2.9-3.95,6.85-3.95,9.67v15.31
		c0,2.42,0.08,6.53,2.9,9.67c2.09,2.34,5.56,3.87,9.27,3.87c2.74,0,5.48-0.81,7.49-2.26c3.95-2.82,4.51-6.77,4.51-9.75v-0.32h-8.06
		c0,0.89-0.24,1.93-0.73,2.74c-0.81,1.21-1.85,1.69-3.22,1.69c-1.29,0-2.42-0.4-3.06-1.13c-0.97-0.97-1.05-2.26-1.05-3.47v-5.16
		h16.28v-10.48C307.45,137.05,306.96,133.02,303.42,129.96z M299.39,144.46h-8.22v-4.92c0-1.05,0.16-2.26,0.97-3.22
		c0.64-0.81,1.77-1.37,3.14-1.37c1.29,0,2.34,0.48,2.98,1.13c0.97,0.97,1.13,2.09,1.13,3.14V144.46z"/>
</g>
</svg>
